<svg width="58" height="71" viewBox="0 0 58 71" fill="none" xmlns="http://www.w3.org/2000/svg">
<path d="M39.6818 40.6885C39.2702 42.599 38.5367 44.1047 37.4812 45.2053C36.8349 46.0167 35.6613 47.1024 33.9604 48.4622C32.2594 49.8221 30.9389 50.7627 29.9988 51.2842C28.0039 52.2695 26.2437 52.7617 24.7182 52.761H0.423519L10.6339 0.651123H34.9286C36.8065 0.651123 38.3909 1.11261 39.6818 2.03558C40.3834 2.49707 41.2931 3.43811 42.411 4.85872C43.5288 6.27933 44.3208 7.42266 44.787 8.28872C45.3155 9.38936 45.4324 10.895 45.1378 12.8055L39.6818 40.6885ZM32.4637 40.1682L37.9208 12.8101C38.0378 12.2325 38.0674 11.8864 38.0097 11.7718C37.7758 11.0196 37.2621 10.2089 36.4685 9.33975C35.675 8.47062 35.0443 7.9203 34.5766 7.68879C34.225 7.51573 33.9608 7.4292 33.7838 7.4292H16.6196L9.04949 45.9864H25.069C25.343 45.991 25.6142 45.9317 25.8606 45.8133C26.796 45.3518 28.1018 44.4542 29.7778 43.1205C31.4538 41.7868 32.3491 40.8027 32.4637 40.1682Z" fill="white"/>
<path d="M52.0191 58.638C51.6075 60.5493 50.874 62.0549 49.8185 63.1548C49.1723 63.9655 47.9987 65.0511 46.2977 66.4117C44.5968 67.7724 43.2762 68.713 42.3361 69.2337C40.3405 70.219 38.5799 70.7113 37.0544 70.7105H12.7597L22.9712 18.5972H47.2694C49.1458 18.5972 50.7302 19.0587 52.0227 19.9816C52.7242 20.4431 53.6336 21.3842 54.7506 22.8048C55.8677 24.2254 56.6601 25.3691 57.1278 26.2359C57.6548 27.3358 57.7717 28.841 57.4786 30.7516L52.0191 58.638ZM44.801 58.1177L50.2582 30.7596C50.3751 30.182 50.4043 29.8359 50.3459 29.7213C50.112 28.9691 49.5987 28.1584 48.8059 27.2893C48.0131 26.4201 47.384 25.8679 46.9186 25.6325C46.5678 25.4583 46.3024 25.3718 46.1258 25.3718H28.9569L21.3868 63.9324H37.4063C37.6807 63.9372 37.9524 63.8779 38.1991 63.7593C39.1346 63.2979 40.4403 62.4003 42.1163 61.0666C43.7923 59.7329 44.6872 58.7488 44.801 58.1142V58.1177Z" fill="white"/>
</svg>
