<svg width="31" height="52" viewBox="0 0 31 52" fill="none" xmlns="http://www.w3.org/2000/svg">
<path d="M12.956 36.2696C11.1856 34.602 10.3021 32.5157 10.3056 30.0105C10.2881 28.0481 10.939 26.1381 12.151 24.5946C13.3779 22.9997 14.7401 21.7601 16.2377 20.876C17.7282 19.9978 19.1014 18.9342 20.3243 17.7105C21.5505 16.4836 22.1642 15.1814 22.1656 13.8037C22.1656 12.2822 21.5642 11.0179 20.3613 10.0111C19.1585 9.00426 17.4282 8.50119 15.1705 8.50187C11.1445 8.50187 7.73261 10.2202 4.93483 13.6567L0 8.13382C3.97528 3.27369 9.32581 0.843628 16.0516 0.843628C20.6177 0.843628 24.2502 1.92381 26.9493 4.08417C29.6484 6.24453 30.9983 9.01797 30.999 12.4045C30.999 14.4175 30.5449 16.2215 29.6368 17.8164C28.7286 19.4113 27.6241 20.7135 26.3232 21.7231C25.021 22.7293 23.7324 23.6741 22.4576 24.5576C21.2446 25.3857 20.1424 26.3655 19.178 27.4732C18.2692 28.5301 17.8151 29.6469 17.8158 30.8238C17.8158 32.1007 18.3559 33.2052 19.436 34.1373L12.956 36.2696ZM19.252 50.0028C18.4086 50.8467 17.2987 51.3721 16.1113 51.4894C14.924 51.6067 13.7327 51.3087 12.7404 50.646C11.7482 49.9834 11.0165 48.9973 10.6698 47.8556C10.3232 46.7139 10.3832 45.4874 10.8396 44.3849C11.296 43.2825 12.1205 42.3725 13.1727 41.8099C14.2248 41.2473 15.4395 41.0669 16.6098 41.2995C17.78 41.5322 18.8334 42.1634 19.5904 43.0856C20.3474 44.0078 20.7612 45.164 20.7613 46.3572C20.7719 47.0357 20.6435 47.7092 20.3839 48.3362C20.1244 48.9632 19.7391 49.5304 19.252 50.0028Z" fill="white"/>
</svg>
