<svg id="Layer_1" data-name="Layer 1" xmlns="http://www.w3.org/2000/svg" viewBox="0 0 165.7 193.86"><defs><style>.cls-1{fill:#f59523;}</style></defs><path class="cls-1" d="M84.17,0c3.32,2.28,4.42,5.44,4.09,9.37-.22,2.61,0,5.26-.05,7.89-.08,5.91-1.39,7.23-7,6.15a5.33,5.33,0,0,1-3.43-3.62,50,50,0,0,1,0-13.27C78.1,4.17,80.61,2.16,82.17,0Z"/><path class="cls-1" d="M105.92,131.6l-24-57c-1.56,2.56-2.65,4.06-3.45,5.7-11.49,23.56-23,47.09-34.31,70.75-2.32,4.89-5.4,7.23-10.81,6.8-3-.24-6,0-9,0-7-.11-9.38-3.7-6.37-10Q33.43,115.51,49,83.26c5-10.46,10.29-20.83,15-31.43,2.06-4.64,5.21-6.6,10-6.6,5.83,0,11.66,0,17.5,0,4.09,0,6.72,1.74,8.37,5.69,13.53,32.27,27.23,64.47,40.83,96.71,2.82,6.68.43,9.59-6.93,10.28-13.72,1.29-26.29-3.28-39.12-6.7-1.92-.51-3.86-.95-6.39-1.57A44.72,44.72,0,0,0,87,154.43q-1.2,7.37-2.19,14.75C82.63,185.54,81,187.6,65.11,193.27c-5.37,1.92-9.12-1-8.21-6.59q4.58-28,9.36-55.88c1.08-6.27,3.15-7.55,9.29-6.11,7.78,1.82,15.53,3.76,23.3,5.61C100.72,130.74,102.64,131,105.92,131.6Z"/><path class="cls-1" d="M12,84.92c1.32,0,2.65,0,4,0,5.47.06,6.6,1.19,6.54,6.15-.05,4.54-2.73,5.38-6.6,5.12-3.13-.21-6.3-.06-9.45,0C2.72,96.17.11,94.22,0,90.7c-.11-3.84,2.5-5.91,6.51-5.84,1.83,0,3.65,0,5.48,0Z"/><path class="cls-1" d="M142.59,33.93c-1.2,2.11-1.86,3.82-3,5.12-2.49,2.86-5.32,5.43-7.84,8.27-2.37,2.66-4.44,2.29-6.61-.15-1.93-2.14-5-3.93-1.59-7.29,3-3,5.69-6.51,9-9.18,1.49-1.19,4.37-1.51,6.31-1C140.33,30,141.28,32.34,142.59,33.93Z"/><path class="cls-1" d="M154.22,84.94c2.32,0,5-.69,6.86.19s4.57,3.32,4.62,5.13-2.39,5.16-4.15,5.47a59.23,59.23,0,0,1-14.34.26c-4-.3-2.77-3.84-3-6.25s.21-4.75,3.51-4.78c2.15,0,4.3,0,6.45,0Z"/><path class="cls-1" d="M21.58,33.9c1.3-1.61,2.21-3.83,3.68-4.29a7.35,7.35,0,0,1,5.93.83A88.59,88.59,0,0,1,40.65,40c3,3.31,0,5.3-1.94,7.49-2.18,2.45-4.13,2.17-6.25-.14-2.57-2.82-5.42-5.39-7.93-8.25C23.39,37.76,22.77,36,21.58,33.9Z"/></svg>