<?xml version="1.0" encoding="utf-8"?>
<!-- Generator: Adobe Illustrator 26.0.2, SVG Export Plug-In . SVG Version: 6.00 Build 0)  -->
<svg version="1.1" id="Layer_1" xmlns="http://www.w3.org/2000/svg" xmlns:xlink="http://www.w3.org/1999/xlink" x="0px" y="0px"
	 viewBox="0 0 972.93 1003.73" style="enable-background:new 0 0 972.93 1003.73;" xml:space="preserve">
<style type="text/css">
	.st0{fill:#FFFFFF;stroke:#231F20;stroke-width:0;stroke-miterlimit:10;}
	.st1{fill:#68BC46;stroke:#FFFFFF;stroke-width:8;stroke-miterlimit:10;}
</style>
<g>
	<path class="st0" d="M711.88,595.02c20.24-0.77,50.08-8.01,54.58-24.81c4.83-18.02-21.58-39.26-34.73-49.62
		c-28.71-22.62-81.53-55.59-213.37-74.43c-58.54-8.37-106.31-10.22-143.9-9.92c-79.9,0.64-162.2,1.29-173.67,34.73
		c-6.82,19.87,11.9,49.78,34.73,59.54c26.22,11.21,41.54-11.14,99.24-19.85c13.62-2.05,40.5-1.37,94.28,0
		c45.56,1.16,68.65,1.81,84.35,4.96c28.69,5.77,49.29,15.5,89.32,34.73C666.65,581.08,679.49,596.25,711.88,595.02z"/>
	<path class="st0" d="M318.35,599.99c-25.65,3.79-101.73,15.02-104.2,39.7c-1.37,13.68,19.98,29.63,39.7,34.73
		c23.28,6.03,35.05-5.44,69.68-14.47c30.73-8.01,60.11-7.14,118.87-5.38c27.58,0.82,51.18,2.89,69.47,4.96
		c41.59,6.61,72.67,18.94,94.28,29.77c35.64,17.86,58.56,38.18,74.61,29.18c10.54-5.9,14.7-22.52,13.3-34.04
		C686.13,619.24,482.72,575.72,318.35,599.99z"/>
	<path class="st0" d="M642.42,302.27c-22.33-5.94-167.76-43.35-352.3-29.77c-55.1,4.05-103.8,11.93-119.09,44.66
		c-7.76,16.62-7.1,40.03,4.96,54.58c19.87,23.98,62.54,14.05,124.05,4.96c120.19-17.76,191.15-28.24,267.95-9.92
		c67.78,16.16,119.09,39.7,119.09,39.7c50.41,23.12,76.86,44.21,109.16,34.73c20.84-6.11,44.9-25.16,44.66-44.66
		C840.38,354.93,729.31,325.38,642.42,302.27z"/>
	<path class="st1" d="M945.1,391.58c-11.35-43.7-42.35-157.11-143.9-258.02c-51.01-50.7-102.84-81.35-138.94-99.24
		c-49.18-15.77-178.77-49.83-327.49,0c-123.41,41.35-194.55,118.53-208.4,133.97c-26.14,29.14-96.1,114.54-114.13,243.14
		c-3.67,26.16-9.34,83.74,4.96,153.82c11.62,56.96,31.22,96.62,54.58,143.9c28.79,58.27,45.42,91.91,79.39,129.01
		c45.87,50.1,93.67,74.05,153.82,104.2c51.36,25.74,84.37,42.29,133.97,49.62c65.65,9.7,117.38-3.09,143.9-9.92
		c102.27-26.36,166.77-85.72,208.4-124.05c63.21-58.18,97.76-114.49,109.16-133.97c20.38-34.82,48.12-82.21,59.54-148.86
		C973.03,499.09,957.63,439.83,945.1,391.58z M602.72,550.37c-40.03-19.23-60.63-28.97-89.32-34.73c-15.7-3.16-38.8-3.8-84.35-4.96
		c-53.78-1.37-80.66-2.05-94.28,0c-57.7,8.71-73.02,31.06-99.24,19.85c-22.84-9.76-41.55-39.67-34.73-59.54
		c11.48-33.44,93.77-34.1,173.67-34.73c37.59-0.3,85.36,1.56,143.9,9.92c131.84,18.84,184.65,51.82,213.37,74.43
		c13.15,10.36,39.56,31.6,34.73,49.62c-4.5,16.8-34.34,24.04-54.58,24.81C679.49,596.25,666.65,581.08,602.72,550.37z
		 M680.76,718.49c-16.05,8.99-38.97-11.32-74.61-29.18c-21.6-10.83-52.69-23.17-94.28-29.77c-18.29-2.07-41.89-4.14-69.47-4.96
		c-58.76-1.76-88.14-2.64-118.87,5.38c-34.63,9.03-46.41,20.5-69.68,14.47c-19.71-5.11-41.07-21.05-39.7-34.73
		c2.48-24.68,78.55-35.91,104.2-39.7c164.37-24.27,367.78,19.26,375.71,84.46C695.45,695.97,691.29,712.58,680.76,718.49z
		 M796.24,441.2c-32.31,9.47-58.75-11.61-109.16-34.73c0,0-51.31-23.53-119.09-39.7c-76.8-18.31-147.76-7.83-267.95,9.92
		c-61.51,9.09-104.18,19.01-124.05-4.96c-12.06-14.55-12.73-37.96-4.96-54.58c15.29-32.73,63.99-40.6,119.09-44.66
		c184.54-13.58,329.98,23.83,352.3,29.77c86.89,23.12,197.96,52.67,198.48,94.28C841.14,416.04,817.07,435.09,796.24,441.2z"/>
</g>
</svg>
