<svg id="Layer_1" data-name="Layer 1" xmlns="http://www.w3.org/2000/svg" viewBox="0 0 956.96 987.25"><defs><style>.cls-1{fill:#fff;}.cls-2{fill:#68bc46;}</style></defs><path class="cls-1" d="M711.88,595c20.24-.77,50.08-8,54.58-24.81,4.83-18-21.58-39.26-34.73-49.62C703,498,650.2,465,518.36,446.16a951.43,951.43,0,0,0-143.9-9.92c-79.9.64-162.2,1.29-173.67,34.73-6.82,19.87,11.9,49.78,34.73,59.54,26.22,11.21,41.54-11.14,99.24-19.85,13.62-2.05,40.5-1.37,94.28,0,45.56,1.16,68.65,1.81,84.35,5,28.69,5.77,49.29,15.5,89.32,34.73C666.65,581.08,679.49,596.25,711.88,595Z" transform="translate(-7.98 -8.24)"/><path class="cls-1" d="M318.35,600c-25.65,3.79-101.73,15-104.2,39.7-1.37,13.68,20,29.63,39.7,34.73,23.28,6,35-5.44,69.68-14.47,30.73-8,60.11-7.14,118.87-5.38,27.58.82,51.18,2.89,69.47,5,41.59,6.61,72.67,18.94,94.28,29.77,35.64,17.86,58.56,38.18,74.61,29.18,10.54-5.9,14.7-22.52,13.3-34C686.13,619.24,482.72,575.72,318.35,600Z" transform="translate(-7.98 -8.24)"/><path class="cls-1" d="M642.42,302.27c-22.33-5.94-167.76-43.35-352.3-29.77C235,276.55,186.32,284.43,171,317.16c-7.76,16.62-7.1,40,5,54.58,19.87,24,62.54,14.05,124.05,5,120.19-17.76,191.15-28.24,268-9.92,67.78,16.16,119.09,39.7,119.09,39.7,50.41,23.12,76.86,44.21,109.16,34.73,20.84-6.11,44.9-25.16,44.66-44.66C840.38,354.93,729.31,325.38,642.42,302.27Z" transform="translate(-7.98 -8.24)"/><path class="cls-2" d="M945.1,391.58c-11.35-43.7-42.35-157.11-143.9-258A532.27,532.27,0,0,0,662.26,34.32c-49.18-15.77-178.77-49.83-327.49,0-123.41,41.35-194.55,118.53-208.4,134-26.14,29.14-96.1,114.54-114.13,243.14a458.17,458.17,0,0,0,5,153.82c11.62,57,31.22,96.62,54.58,143.9,28.79,58.27,45.42,91.91,79.39,129C197,888.26,244.84,912.21,305,942.36c51.36,25.74,84.37,42.29,134,49.62,65.65,9.7,117.38-3.09,143.9-9.92,102.27-26.36,166.77-85.72,208.4-124C854.47,799.83,889,743.52,900.42,724c20.38-34.82,48.12-82.21,59.54-148.86C973,499.09,957.63,439.83,945.1,391.58ZM602.72,550.37c-40-19.23-60.63-29-89.32-34.73-15.7-3.16-38.8-3.8-84.35-5-53.78-1.37-80.66-2.05-94.28,0-57.7,8.71-73,31.06-99.24,19.85C212.69,520.77,194,490.86,200.8,471c11.48-33.44,93.77-34.1,173.67-34.73a952.75,952.75,0,0,1,143.9,9.92C650.21,465,703,498,731.74,520.61c13.15,10.36,39.56,31.6,34.73,49.62-4.5,16.8-34.34,24-54.58,24.81C679.49,596.25,666.65,581.08,602.72,550.37Zm78,168.12c-16,9-39-11.32-74.61-29.18-21.6-10.83-52.69-23.17-94.28-29.77-18.29-2.07-41.89-4.14-69.47-5-58.76-1.76-88.14-2.64-118.87,5.38-34.63,9-46.41,20.5-69.68,14.47-19.71-5.11-41.07-21-39.7-34.73,2.48-24.68,78.55-35.91,104.2-39.7,164.37-24.27,367.78,19.26,375.71,84.46C695.45,696,691.29,712.58,680.76,718.49ZM796.24,441.2c-32.31,9.47-58.75-11.61-109.16-34.73,0,0-51.31-23.53-119.09-39.7-76.8-18.31-147.76-7.83-267.95,9.92-61.51,9.09-104.18,19-124-5-12.06-14.55-12.73-38-5-54.58,15.29-32.73,64-40.6,119.09-44.66,184.54-13.58,330,23.83,352.3,29.77,86.89,23.12,198,52.67,198.48,94.28C841.14,416,817.07,435.09,796.24,441.2Z" transform="translate(-7.98 -8.24)"/></svg>