<svg height="14" width="14" xmlns="http://www.w3.org/2000/svg"><g fill="none" fill-rule="evenodd"><path d="M0 0h14v14H0z"/><g fill-rule="nonzero"><path d="M13.412 1.56l-2.098 10.71s-.09.49-.697.49c-.323 0-.489-.153-.489-.153l-4.544-3.77-2.223-1.121-2.853-.76S0 6.81 0 6.39c0-.35.522-.517.522-.517L12.46 1.131s.365-.132.631-.131c.164 0 .35.07.35.28 0 .14-.028.28-.028.28z" fill="#fff"/><path d="M7.28 10.243l-1.919 1.89s-.083.064-.194.066a.277.277 0 01-.123-.024l.54-3.34z" fill="#b0bec5"/><path d="M11.142 3.35a.28.28 0 00-.392-.052L3.36 7.72s1.18 3.3 1.36 3.87c.18.572.324.586.324.586l.54-3.34 5.506-5.094a.28.28 0 00.052-.392z" fill="#cfd8dc"/></g></g></svg>