<svg id="Layer_1" data-name="Layer 1" xmlns="http://www.w3.org/2000/svg" viewBox="0 0 627.65 435.14"><defs><style>.cls-1{fill:#fff;}.cls-2{fill:#ea1f27;}</style></defs><rect class="cls-1" x="163.74" y="52.03" width="322.39" height="322.39"/><path class="cls-2" d="M629.6,123.84c0-7.5.07-23.67-7.38-42.41a100.19,100.19,0,0,0-29.5-40.56c-13.26-10.56-26-14.67-35-17.52C538,17.18,526.1,18.49,502.38,16.9c-27-1.81-31.29-4.83-59-8.3C430,6.93,419.7,6.22,328.14,6.76c-55.71.33-75.43.73-90.94,1.13,0,0-26.71.69-74.08,3.48a433.84,433.84,0,0,0-51.63,5.53c-11.07,1.9-20.24,4-26.73,5.53-17,8.38-44.61,25.44-60.85,57.16-8.82,17.23-10.61,34.77-13.83,69.14a667.45,667.45,0,0,0-.92,113.39c4,51.57,10.1,53.11,12.91,89.42a74,74,0,0,0,5.53,24c5.85,13.88,14.75,22.44,20.28,27.66a117.39,117.39,0,0,0,41.49,24.89c26.48,9.51,45.87,8,78.36,8.3,39.85.34,23.58,2.7,86.66,4.61,105.09,3.18,98.47-4.93,183.46-1.84,14.73.53,43.17,1.8,80.21-3.69,37.5-5.56,52.86-13.46,59.92-17.52,9.14-5.25,32.95-19.32,46.09-47,8-16.91,8.77-31.95,9.22-43.33C638.25,202,629.71,189.78,629.6,123.84ZM234.51,335.72q-.7-112.47-1.42-224.94L424,222.18Q329.25,279,234.51,335.72Z" transform="translate(-7.19 -6.58)"/></svg>