<?xml version="1.0" encoding="utf-8"?>
<!-- Generator: Adobe Illustrator 26.0.2, SVG Export Plug-In . SVG Version: 6.00 Build 0)  -->
<svg version="1.1" id="Layer_1" xmlns="http://www.w3.org/2000/svg" xmlns:xlink="http://www.w3.org/1999/xlink" x="0px" y="0px"
	 viewBox="0 0 642.03 448.31" style="enable-background:new 0 0 642.03 448.31;" xml:space="preserve">
<style type="text/css">
	.st0{fill:#FFFFFF;}
	.st1{fill:#EA1F27;stroke:#FFFFFF;stroke-width:8;stroke-miterlimit:10;}
</style>
<g>
	<rect x="170.93" y="58.61" class="st0" width="322.39" height="322.39"/>
	<path class="st1" d="M629.6,123.84c-0.01-7.5,0.07-23.67-7.38-42.41c-9.7-24.39-26.09-37.84-29.5-40.56
		c-13.26-10.56-25.97-14.67-35.03-17.52c-19.66-6.17-31.59-4.86-55.31-6.45c-26.96-1.81-31.29-4.83-59-8.3
		c-13.39-1.67-23.68-2.38-115.24-1.84c-55.71,0.33-75.43,0.73-90.94,1.13c0,0-26.71,0.69-74.08,3.48
		c-14.33,0.84-30.52,1.9-51.63,5.53c-11.07,1.9-20.24,3.96-26.73,5.53C67.8,30.81,40.15,47.87,23.91,79.59
		c-8.82,17.23-10.61,34.77-13.83,69.14c-4.27,45.58-3.14,84.56-0.92,113.39c3.97,51.57,10.1,53.11,12.91,89.42
		c0.3,3.85,0.95,13.09,5.53,23.97c5.85,13.88,14.75,22.44,20.28,27.66c13.95,13.16,29.12,20.45,41.49,24.89
		c26.48,9.51,45.87,8.02,78.36,8.3c39.85,0.34,23.58,2.7,86.66,4.61c105.09,3.18,98.47-4.93,183.46-1.84
		c14.73,0.53,43.17,1.8,80.21-3.69c37.5-5.56,52.86-13.46,59.92-17.52c9.14-5.25,32.95-19.32,46.09-47.02
		c8.02-16.91,8.77-31.95,9.22-43.33C638.25,201.96,629.71,189.78,629.6,123.84z M234.51,335.72c-0.47-74.98-0.95-149.96-1.42-224.94
		c63.63,37.13,127.25,74.27,190.88,111.4C360.82,260.03,297.67,297.88,234.51,335.72z"/>
</g>
</svg>
